<svg version="1.1" id="Layer_1" xmlns="http://www.w3.org/2000/svg" xmlns:xlink="http://www.w3.org/1999/xlink" x="0px" y="0px"
	 width="100%" viewBox="0 0 429 445" enable-background="new 0 0 429 445" xml:space="preserve">
<path fill="#000000" opacity="1.000000" stroke="none" 
	d="
M430.000000,148.000000 
	C430.000000,148.000000 430.000000,148.500000 429.639038,148.856812 
	C426.523376,150.809128 423.776398,152.418137 421.012573,153.997635 
	C412.228271,159.017746 403.412781,163.983917 394.654083,169.048325 
	C368.776917,184.010880 342.912781,198.996033 317.064362,214.008163 
	C311.966248,216.968994 306.960876,220.089508 301.479370,223.397934 
	C309.119690,227.709030 316.142975,231.602005 323.098999,235.611618 
	C337.154694,243.713715 351.179169,251.870132 365.206635,260.021149 
	C377.434814,267.126678 389.608398,274.327240 401.883392,281.350708 
	C411.192596,286.677246 420.623322,291.791382 430.000000,297.000000 
	C430.000000,298.066681 430.000000,299.133331 429.626282,300.601807 
	C424.241913,309.125366 419.085236,317.161346 414.252350,325.387573 
	C405.465790,340.343658 396.899994,355.429413 388.110199,370.383545 
	C387.686676,371.104126 385.658081,371.696289 384.948883,371.306763 
	C378.474152,367.750916 372.127747,363.961578 365.741241,360.244934 
	C351.856049,352.164307 337.982819,344.062897 324.079437,336.013672 
	C309.484436,327.564056 294.864349,319.157776 280.246460,310.747711 
	C272.936127,306.541840 265.606354,302.369812 258.000000,298.019226 
	C258.000000,347.737213 258.000000,396.868591 258.000000,446.000000 
	C229.645767,446.000000 201.291550,446.000000 172.468658,445.531342 
	C172.000000,396.199463 172.000000,347.336243 172.000000,297.910645 
	C128.780365,322.851624 86.157173,347.448425 43.688934,371.955811 
	C40.617512,366.787018 37.753635,362.130341 35.047539,357.383728 
	C25.981501,341.481689 17.054253,325.499695 7.870805,309.666107 
	C6.040606,306.510559 3.313512,303.875214 0.999996,301.000000 
	C1.000000,299.611115 1.000000,298.222198 1.376522,296.415039 
	C19.863592,285.662262 37.993183,275.360992 56.079975,264.985107 
	C80.024315,251.248886 103.935173,237.454300 128.604782,223.256378 
	C123.033142,220.096054 117.878822,217.230408 112.779999,214.269211 
	C98.895996,206.205978 85.050323,198.076721 71.161461,190.021912 
	C57.278301,181.970398 43.385143,173.935516 29.450764,165.973145 
	C20.007973,160.577377 10.486357,155.319534 0.999998,150.000000 
	C1.000000,148.933334 1.000000,147.866653 1.376609,146.398041 
	C3.219467,143.812531 4.818365,141.705612 6.131209,139.433426 
	C17.788372,119.258018 29.397837,99.055046 41.013107,78.855453 
	C42.700069,75.921745 44.818348,75.149414 47.916779,76.959564 
	C53.603687,80.281906 59.439350,83.349136 65.136063,86.655281 
	C79.037354,94.723038 92.882401,102.887611 106.773117,110.973671 
	C120.794792,119.135956 134.827545,127.279549 148.888214,135.374420 
	C156.356674,139.674072 163.894608,143.853088 172.000000,148.424271 
	C172.000000,98.838181 172.000000,49.919090 172.000000,1.000000 
	C200.354233,1.000000 228.708450,1.000000 257.531342,1.468657 
	C258.000000,50.534039 258.000000,99.130760 258.000000,148.415024 
	C263.677734,145.259689 268.860779,142.481659 273.946045,139.534836 
	C292.292999,128.903152 310.582306,118.171997 328.940430,107.559723 
	C346.879211,97.189857 365.012238,87.145576 382.739136,76.427689 
	C386.606323,74.089554 387.971405,75.449921 389.520386,78.112183 
	C395.093811,87.691376 400.456512,97.393005 406.013916,106.981697 
	C413.956146,120.685249 421.999695,134.330093 430.000000,148.000000 
z"/>
<path fill="#FFFFFF" opacity="1.000000" stroke="none" 
	d="
M258.468658,446.000000 
	C258.000000,396.868591 258.000000,347.737213 258.000000,298.019226 
	C265.606354,302.369812 272.936127,306.541840 280.246460,310.747711 
	C294.864349,319.157776 309.484436,327.564056 324.079437,336.013672 
	C337.982819,344.062897 351.856049,352.164307 365.741241,360.244934 
	C372.127747,363.961578 378.474152,367.750916 384.948883,371.306763 
	C385.658081,371.696289 387.686676,371.104126 388.110199,370.383545 
	C396.899994,355.429413 405.465790,340.343658 414.252350,325.387573 
	C419.085236,317.161346 424.241913,309.125366 429.626282,301.001801 
	C430.000000,349.266541 430.000000,397.533112 430.000000,446.000000 
	C372.979248,446.000000 315.958282,446.000000 258.468658,446.000000 
z"/>
<path fill="#FFFFFF" opacity="1.000000" stroke="none" 
	d="
M0.999996,301.468658 
	C3.313512,303.875214 6.040606,306.510559 7.870805,309.666107 
	C17.054253,325.499695 25.981501,341.481689 35.047539,357.383728 
	C37.753635,362.130341 40.617512,366.787018 43.688934,371.955811 
	C86.157173,347.448425 128.780365,322.851624 172.000000,297.910645 
	C172.000000,347.336243 172.000000,396.199463 172.000000,445.531342 
	C115.079010,446.000000 58.158016,446.000000 1.000000,446.000000 
	C1.000000,397.979370 1.000000,349.958344 0.999996,301.468658 
z"/>
<path fill="#FFFFFF" opacity="1.000000" stroke="none" 
	d="
M430.000000,147.531342 
	C421.999695,134.330093 413.956146,120.685249 406.013916,106.981697 
	C400.456512,97.393005 395.093811,87.691376 389.520386,78.112183 
	C387.971405,75.449921 386.606323,74.089554 382.739136,76.427689 
	C365.012238,87.145576 346.879211,97.189857 328.940430,107.559723 
	C310.582306,118.171997 292.292999,128.903152 273.946045,139.534836 
	C268.860779,142.481659 263.677734,145.259689 258.000000,148.415024 
	C258.000000,99.130760 258.000000,50.534039 258.000000,1.468657 
	C315.254608,1.000000 372.509247,1.000000 430.000000,1.000000 
	C430.000000,49.687305 430.000000,98.374992 430.000000,147.531342 
z"/>
<path fill="#FFFFFF" opacity="1.000000" stroke="none" 
	d="
M171.531342,1.000000 
	C172.000000,49.919090 172.000000,98.838181 172.000000,148.424271 
	C163.894608,143.853088 156.356674,139.674072 148.888214,135.374420 
	C134.827545,127.279549 120.794792,119.135956 106.773117,110.973671 
	C92.882401,102.887611 79.037354,94.723038 65.136063,86.655281 
	C59.439350,83.349136 53.603687,80.281906 47.916779,76.959564 
	C44.818348,75.149414 42.700069,75.921745 41.013107,78.855453 
	C29.397837,99.055046 17.788372,119.258018 6.131209,139.433426 
	C4.818365,141.705612 3.219467,143.812531 1.376609,145.998047 
	C1.000000,97.733665 1.000000,49.467323 1.000000,1.000000 
	C57.687401,1.000000 114.375046,1.000000 171.531342,1.000000 
z"/>
<path fill="#FFFFFF" opacity="1.000000" stroke="none" 
	d="
M430.000000,296.531342 
	C420.623322,291.791382 411.192596,286.677246 401.883392,281.350708 
	C389.608398,274.327240 377.434814,267.126678 365.206635,260.021149 
	C351.179169,251.870132 337.154694,243.713715 323.098999,235.611618 
	C316.142975,231.602005 309.119690,227.709030 301.479370,223.397934 
	C306.960876,220.089508 311.966248,216.968994 317.064362,214.008163 
	C342.912781,198.996033 368.776917,184.010880 394.654083,169.048325 
	C403.412781,163.983917 412.228271,159.017746 421.012573,153.997635 
	C423.776398,152.418137 426.523376,150.809128 429.639038,149.106812 
	C430.000000,198.020889 430.000000,247.041794 430.000000,296.531342 
z"/>
<path fill="#FFFFFF" opacity="1.000000" stroke="none" 
	d="
M0.999998,150.468658 
	C10.486357,155.319534 20.007973,160.577377 29.450764,165.973145 
	C43.385143,173.935516 57.278301,181.970398 71.161461,190.021912 
	C85.050323,198.076721 98.895996,206.205978 112.779999,214.269211 
	C117.878822,217.230408 123.033142,220.096054 128.604782,223.256378 
	C103.935173,237.454300 80.024315,251.248886 56.079975,264.985107 
	C37.993183,275.360992 19.863592,285.662262 1.376522,295.998352 
	C1.000000,247.645767 1.000000,199.291550 0.999998,150.468658 
z"/>
</svg>